<svg id="visual" viewBox="0 0 900 600" width="900" height="600" xmlns="http://www.w3.org/2000/svg" xmlns:xlink="http://www.w3.org/1999/xlink" version="1.1"><rect x="0" y="0" width="900" height="600" fill="#001220"></rect><path d="M0 349L21.5 360.2C43 371.3 86 393.7 128.8 393.8C171.7 394 214.3 372 257.2 362.2C300 352.3 343 354.7 385.8 366.5C428.7 378.3 471.3 399.7 514.2 400.3C557 401 600 381 642.8 381.8C685.7 382.7 728.3 404.3 771.2 412.3C814 420.3 857 414.7 878.5 411.8L900 409L900 601L878.5 601C857 601 814 601 771.2 601C728.3 601 685.7 601 642.8 601C600 601 557 601 514.2 601C471.3 601 428.7 601 385.8 601C343 601 300 601 257.2 601C214.3 601 171.7 601 128.8 601C86 601 43 601 21.5 601L0 601Z" fill="#69e6fa"></path><path d="M0 399L21.5 410.7C43 422.3 86 445.7 128.8 449.5C171.7 453.3 214.3 437.7 257.2 427.2C300 416.7 343 411.3 385.8 411C428.7 410.7 471.3 415.3 514.2 424.7C557 434 600 448 642.8 451C685.7 454 728.3 446 771.2 447C814 448 857 458 878.5 463L900 468L900 601L878.5 601C857 601 814 601 771.2 601C728.3 601 685.7 601 642.8 601C600 601 557 601 514.2 601C471.3 601 428.7 601 385.8 601C343 601 300 601 257.2 601C214.3 601 171.7 601 128.8 601C86 601 43 601 21.5 601L0 601Z" fill="#00c3ff"></path><path d="M0 477L21.5 479.8C43 482.7 86 488.3 128.8 482C171.7 475.7 214.3 457.3 257.2 449.3C300 441.3 343 443.7 385.8 447.7C428.7 451.7 471.3 457.3 514.2 466C557 474.7 600 486.3 642.8 484.5C685.7 482.7 728.3 467.3 771.2 464.5C814 461.7 857 471.3 878.5 476.2L900 481L900 601L878.5 601C857 601 814 601 771.2 601C728.3 601 685.7 601 642.8 601C600 601 557 601 514.2 601C471.3 601 428.7 601 385.8 601C343 601 300 601 257.2 601C214.3 601 171.7 601 128.8 601C86 601 43 601 21.5 601L0 601Z" fill="#009aff"></path><path d="M0 509L21.5 513C43 517 86 525 128.8 522C171.7 519 214.3 505 257.2 497.2C300 489.3 343 487.7 385.8 494.2C428.7 500.7 471.3 515.3 514.2 523.8C557 532.3 600 534.7 642.8 529.8C685.7 525 728.3 513 771.2 507.2C814 501.3 857 501.7 878.5 501.8L900 502L900 601L878.5 601C857 601 814 601 771.2 601C728.3 601 685.7 601 642.8 601C600 601 557 601 514.2 601C471.3 601 428.7 601 385.8 601C343 601 300 601 257.2 601C214.3 601 171.7 601 128.8 601C86 601 43 601 21.5 601L0 601Z" fill="#1b69ec"></path><path d="M0 558L21.5 558.8C43 559.7 86 561.3 128.8 561.5C171.7 561.7 214.3 560.3 257.2 554.3C300 548.3 343 537.7 385.8 538.3C428.7 539 471.3 551 514.2 557.7C557 564.3 600 565.7 642.8 561.2C685.7 556.7 728.3 546.3 771.2 546.5C814 546.7 857 557.3 878.5 562.7L900 568L900 601L878.5 601C857 601 814 601 771.2 601C728.3 601 685.7 601 642.8 601C600 601 557 601 514.2 601C471.3 601 428.7 601 385.8 601C343 601 300 601 257.2 601C214.3 601 171.7 601 128.8 601C86 601 43 601 21.5 601L0 601Z" fill="#5824c7"></path></svg>